<?xml version="1.0" encoding="UTF-8" ?>
<!DOCTYPE svg PUBLIC "-//W3C//DTD SVG 1.1//EN" "http://www.w3.org/Graphics/SVG/1.1/DTD/svg11.dtd">
<svg width="354pt" height="158pt" viewBox="0 0 1812 812" version="1.1" xmlns="http://www.w3.org/2000/svg">
<g id="#ffffffff">
</g>
<g id="#68afcfff">
<path fill="#68afcf" opacity="1.00" d=" M 462.02 27.74 C 466.87 29.68 471.27 32.53 475.80 35.10 C 493.44 45.06 510.89 55.33 528.44 65.46 C 538.40 70.69 547.88 76.77 557.78 82.12 C 559.08 82.88 560.29 83.78 561.49 84.70 C 556.69 87.44 552.06 90.46 547.51 93.59 C 542.56 97.08 537.01 99.60 532.10 103.16 C 527.00 106.85 521.22 109.48 516.11 113.17 C 511.20 116.72 505.65 119.25 500.71 122.75 C 493.78 127.61 486.21 131.46 479.31 136.36 C 473.79 139.84 468.18 143.18 462.51 146.42 C 465.59 135.41 469.32 124.54 470.96 113.18 C 459.26 112.87 447.64 114.17 436.01 115.22 C 428.29 115.40 420.70 117.02 412.99 117.35 C 407.28 117.62 401.72 119.20 395.99 119.28 C 390.91 119.29 386.06 121.13 380.99 121.26 C 375.60 121.40 370.44 123.19 365.06 123.38 C 337.60 127.54 310.15 132.04 283.06 138.22 C 249.99 145.16 217.25 154.08 185.55 165.78 C 169.94 171.38 154.69 178.08 140.32 186.38 C 136.07 188.78 132.66 192.55 128.11 194.41 C 130.16 191.73 132.69 189.49 135.27 187.35 C 138.80 184.53 141.57 180.92 144.85 177.85 C 152.75 170.74 159.32 162.27 167.52 155.48 C 174.46 148.67 182.36 142.97 189.91 136.87 C 196.56 132.54 202.83 127.64 209.66 123.59 C 221.04 115.90 233.74 110.54 246.32 105.18 C 257.52 99.89 269.39 96.26 280.94 91.84 C 318.87 78.64 358.03 69.30 397.53 62.21 C 403.68 60.44 410.16 60.83 416.36 59.22 C 424.78 58.48 433.06 56.64 441.53 56.35 C 450.59 54.50 459.84 54.84 468.97 53.54 C 468.04 44.61 464.47 36.30 462.02 27.74 Z" />
<path fill="#68afcf" opacity="1.00" d=" M 322.63 139.87 C 339.19 146.50 355.31 154.21 371.74 161.16 C 388.47 168.42 405.15 175.78 421.88 183.04 C 426.97 185.53 432.43 187.21 437.35 190.06 C 412.99 208.85 388.37 227.31 363.90 245.95 C 358.40 249.74 353.60 254.46 347.91 257.97 C 343.28 260.78 339.75 265.14 334.85 267.51 C 338.37 255.73 341.30 243.54 340.85 231.16 C 337.53 231.18 334.19 231.35 330.95 232.12 C 287.83 239.35 244.98 248.39 202.81 260.00 C 189.08 264.28 175.08 267.68 161.58 272.69 C 151.71 276.01 141.82 279.29 132.21 283.34 C 124.97 286.39 117.44 288.80 110.54 292.60 C 98.20 298.13 85.97 304.13 74.89 311.95 C 70.22 315.24 65.01 318.06 61.50 322.70 C 58.19 326.89 53.99 330.35 51.22 334.98 C 53.93 325.47 57.79 316.37 60.81 306.96 C 65.72 295.45 70.88 284.02 76.99 273.08 C 81.19 265.46 84.63 257.15 91.08 251.06 C 102.48 240.18 116.56 232.74 130.30 225.27 C 144.19 219.31 158.06 213.27 172.31 208.18 C 205.85 196.47 240.28 187.46 274.95 179.78 C 285.69 177.65 296.43 175.44 307.12 173.07 C 316.08 171.67 325.06 170.36 333.94 168.50 C 331.46 158.48 326.82 149.23 322.63 139.87 Z" />
<path fill="#68afcf" opacity="1.00" d=" M 438.83 235.66 C 448.47 238.78 457.74 242.95 467.13 246.75 C 476.06 250.03 484.51 254.53 493.65 257.30 C 500.77 260.70 508.19 263.41 515.50 266.37 C 533.95 274.61 552.98 281.47 571.58 289.35 C 572.68 289.87 573.47 290.85 574.39 291.64 C 565.50 297.91 557.55 305.38 548.77 311.79 C 531.65 326.07 513.77 339.40 496.66 353.70 C 487.20 360.86 478.12 368.49 468.77 375.79 C 464.71 378.86 461.15 382.57 456.82 385.28 C 459.94 373.82 462.05 362.07 462.88 350.23 C 456.03 349.98 449.28 351.34 442.45 351.65 C 433.66 353.33 424.67 353.22 415.89 355.01 C 407.91 355.18 400.12 357.13 392.15 357.48 C 387.75 357.95 383.44 359.05 379.02 359.29 C 373.96 359.61 369.09 361.28 364.00 361.33 C 311.64 368.56 259.47 378.15 208.60 392.72 C 199.42 394.82 190.80 398.71 181.62 400.76 C 158.58 408.10 135.89 416.46 113.50 425.61 C 95.79 433.23 78.26 441.94 63.40 454.40 C 58.45 459.43 52.70 463.97 49.49 470.41 C 47.96 473.36 46.69 476.43 45.18 479.39 C 42.78 466.07 40.53 452.63 40.62 439.04 C 39.92 433.47 39.09 427.82 40.13 422.22 C 41.35 415.70 40.08 409.01 41.33 402.50 C 42.61 392.96 48.57 384.85 55.09 378.11 C 60.00 373.98 64.60 369.41 70.08 366.01 C 86.70 354.89 105.02 346.69 123.62 339.51 C 136.04 334.31 148.81 330.04 161.41 325.31 C 175.25 321.11 189.05 316.79 202.95 312.80 C 209.55 311.26 216.05 309.30 222.59 307.49 C 237.90 304.31 252.98 300.07 268.38 297.29 C 310.94 288.51 353.90 282.13 397.04 276.90 C 403.43 276.79 409.61 274.90 415.99 274.65 C 421.70 274.38 427.28 272.80 433.01 272.74 C 439.76 272.75 446.26 270.45 453.02 270.59 C 452.55 265.05 449.65 260.20 447.82 255.06 C 445.39 248.33 441.50 242.28 438.83 235.66 Z" />
<path fill="#68afcf" opacity="1.00" d=" M 345.99 522.31 C 366.08 530.26 386.78 536.46 407.09 543.76 C 425.89 549.78 444.51 556.33 463.19 562.71 C 467.54 564.41 472.01 565.86 476.65 566.49 C 472.70 570.32 468.41 573.74 463.94 576.94 C 457.81 583.18 450.97 588.64 444.46 594.46 C 435.03 603.71 424.72 612.02 415.43 621.42 C 407.85 627.46 401.00 634.35 393.59 640.60 C 389.52 643.85 386.27 648.00 382.11 651.14 C 378.40 653.95 375.46 657.59 372.19 660.88 C 374.76 649.25 376.71 637.34 376.58 625.41 C 372.89 624.87 369.27 625.64 365.77 626.77 C 355.87 627.94 346.10 630.10 336.41 632.48 C 320.54 635.97 305.07 641.11 289.97 647.08 C 276.34 653.52 262.18 658.82 248.92 666.01 C 239.49 670.67 230.69 676.76 223.27 684.23 C 220.10 687.29 217.84 691.22 216.58 695.43 C 215.45 700.05 217.18 704.68 218.22 709.15 C 207.75 703.47 197.72 696.98 188.09 689.97 C 175.11 681.54 162.82 672.04 151.58 661.41 C 147.18 656.95 143.55 650.62 144.94 644.16 C 147.68 636.32 152.66 629.26 159.43 624.37 C 167.43 616.92 177.27 612.02 186.62 606.54 C 199.89 599.62 213.88 594.22 227.72 588.57 C 237.18 585.33 246.69 582.21 256.18 579.05 C 273.36 574.00 290.61 569.16 307.98 564.80 C 314.70 563.90 320.98 561.12 327.72 560.36 C 339.12 558.00 350.49 555.39 361.98 553.50 C 361.19 546.40 357.18 540.23 353.89 534.05 C 351.79 529.80 348.74 526.14 345.99 522.31 Z" />
<path fill="#68afcf" opacity="1.00" d=" M 472.56 622.80 C 482.07 624.92 491.07 628.78 500.41 631.48 C 523.89 638.95 547.31 646.60 570.80 654.04 C 577.46 656.22 584.29 657.99 590.73 660.79 C 579.16 672.85 567.34 684.72 554.96 695.94 C 550.91 700.56 546.10 704.42 541.89 708.89 C 535.82 714.83 530.00 721.03 523.74 726.78 C 514.85 733.96 507.67 742.99 498.96 750.36 C 499.57 745.58 500.81 740.87 500.74 736.03 C 500.33 727.73 502.59 719.47 500.73 711.24 C 492.77 710.48 485.16 713.17 477.28 713.56 C 467.84 715.09 458.32 716.15 448.95 718.12 C 443.91 719.43 438.64 719.33 433.62 720.71 C 420.84 723.04 408.26 726.35 395.80 730.00 C 388.50 732.48 381.51 735.92 375.00 740.03 C 371.50 743.15 367.02 746.31 366.52 751.37 C 366.21 754.08 367.34 756.89 368.96 759.03 C 371.87 761.44 375.55 762.70 378.48 765.12 C 373.52 765.80 368.87 763.54 363.99 763.24 C 343.17 760.15 322.94 754.17 302.77 748.32 C 295.67 745.80 288.43 743.22 282.27 738.77 C 279.01 736.43 276.41 732.95 275.71 728.95 C 275.07 724.05 278.31 719.80 281.15 716.17 C 288.18 709.09 296.98 704.11 305.90 699.80 C 321.38 691.62 338.34 686.88 355.04 681.91 C 370.55 677.77 386.08 673.64 401.86 670.58 C 418.15 666.77 434.72 664.37 451.11 661.04 C 458.19 660.38 465.15 658.85 472.22 658.00 C 477.39 656.56 482.84 657.12 488.02 655.78 C 487.26 649.06 483.21 643.45 480.49 637.42 C 478.25 632.33 474.74 627.92 472.56 622.80 Z" />
<path fill="#68afcf" opacity="1.00" d=" M 380.27 765.23 C 380.80 765.75 380.80 765.75 380.27 765.23 Z" />
</g>
<g id="#116393ff">
<path fill="#116393" opacity="1.00" d=" M 1720.08 208.17 C 1721.52 204.26 1725.98 203.28 1729.69 203.07 C 1732.16 203.33 1734.59 203.89 1737.08 204.27 C 1736.96 205.64 1737.23 207.29 1735.85 208.13 C 1732.83 208.50 1729.81 206.54 1726.93 207.90 C 1724.31 208.42 1723.90 211.44 1723.94 213.65 C 1728.06 217.71 1734.84 217.91 1737.88 223.24 C 1738.26 226.00 1738.40 228.90 1737.76 231.62 C 1734.08 237.85 1725.45 237.88 1719.50 235.33 C 1717.92 234.64 1719.03 232.54 1719.15 231.31 C 1722.52 230.96 1725.86 233.29 1729.30 232.24 C 1732.59 232.28 1735.14 227.75 1732.88 225.10 C 1730.96 222.40 1727.34 221.97 1724.64 220.40 C 1720.16 218.52 1717.36 212.51 1720.08 208.17 Z" />
<path fill="#116393" opacity="1.00" d=" M 1744.87 203.99 C 1746.89 203.99 1748.94 203.98 1751.01 203.98 C 1753.54 212.30 1757.12 220.29 1759.22 228.74 C 1761.41 220.29 1765.12 212.25 1767.97 203.98 C 1769.97 203.98 1771.98 203.98 1774.02 203.99 C 1773.70 208.67 1774.36 213.30 1774.98 217.93 C 1774.76 224.05 1776.17 230.07 1776.06 236.18 C 1774.34 236.18 1772.65 236.17 1770.98 236.13 C 1771.26 227.78 1769.55 219.55 1769.73 211.18 C 1766.98 219.52 1763.79 227.71 1760.93 236.01 C 1759.56 236.01 1758.21 236.02 1756.89 236.04 C 1754.43 227.98 1751.56 220.07 1748.67 212.16 C 1747.33 220.08 1748.74 228.18 1747.16 236.07 C 1745.66 236.08 1744.17 236.09 1742.71 236.10 C 1742.92 231.36 1742.86 226.60 1743.78 221.93 C 1744.18 215.95 1743.71 209.92 1744.87 203.99 Z" />
<path fill="#116393" opacity="1.00" d=" M 1145.68 217.65 C 1147.58 216.67 1149.71 217.70 1151.74 217.46 C 1160.08 216.05 1168.58 216.90 1177.00 216.68 C 1184.78 216.90 1192.65 216.03 1200.35 217.51 C 1202.88 218.00 1205.59 216.69 1208.01 217.90 C 1211.12 219.31 1214.62 218.34 1217.92 218.84 C 1221.61 219.45 1225.24 220.56 1229.02 220.70 C 1259.48 225.62 1289.63 235.31 1315.53 252.42 C 1323.35 257.38 1330.46 263.33 1337.84 268.91 C 1326.92 279.32 1317.04 290.75 1306.92 301.91 C 1302.83 305.54 1299.74 310.06 1295.91 313.91 C 1291.48 317.86 1288.20 322.85 1283.90 326.91 C 1280.28 330.20 1277.56 334.31 1274.08 337.72 C 1271.41 333.15 1266.67 330.61 1263.06 326.94 C 1261.31 325.31 1259.25 324.08 1257.29 322.76 C 1239.53 309.20 1217.36 302.05 1195.21 300.54 C 1192.70 300.84 1190.53 299.15 1188.05 299.31 C 1182.03 299.28 1176.02 299.36 1170.00 299.32 C 1165.92 299.37 1161.70 298.84 1157.81 300.35 C 1139.30 301.09 1121.53 307.68 1105.40 316.44 C 1101.92 319.45 1097.72 321.34 1094.03 324.02 C 1091.39 326.76 1087.92 328.51 1085.41 331.40 C 1081.87 335.51 1077.45 338.79 1074.16 343.13 C 1068.87 349.07 1065.17 356.15 1060.88 362.80 C 1052.19 379.61 1047.30 398.22 1045.32 416.98 C 1045.35 427.97 1045.25 438.97 1045.35 449.96 C 1047.58 467.62 1051.86 485.21 1059.88 501.20 C 1064.67 509.24 1069.19 517.54 1075.59 524.45 C 1082.95 532.40 1090.48 540.61 1100.13 545.81 C 1107.42 550.89 1115.26 555.29 1123.70 558.16 C 1134.52 562.38 1146.04 565.29 1157.69 565.47 C 1159.38 566.03 1161.07 566.81 1162.93 566.69 C 1170.97 566.67 1179.02 566.66 1187.06 566.70 C 1188.90 566.81 1190.60 566.07 1192.32 565.52 C 1199.31 565.48 1206.39 564.73 1213.22 563.07 C 1229.79 560.04 1245.77 554.26 1260.71 546.53 C 1260.66 524.06 1260.66 501.59 1260.71 479.13 C 1254.22 477.40 1247.58 478.69 1241.00 478.47 C 1226.67 478.37 1212.32 478.62 1198.00 478.36 C 1194.26 477.12 1190.51 477.57 1186.80 478.62 C 1186.53 450.65 1186.74 422.66 1186.69 394.69 C 1218.12 394.70 1249.56 394.66 1281.00 394.68 C 1302.75 394.85 1324.52 394.33 1346.27 394.94 C 1346.34 466.57 1346.39 538.21 1346.24 609.84 C 1340.38 612.32 1334.85 615.50 1329.08 618.17 C 1325.35 619.86 1321.41 621.05 1317.76 622.88 C 1313.50 625.38 1308.53 626.10 1304.08 628.18 C 1285.18 634.75 1265.72 639.72 1246.08 643.35 C 1237.39 644.76 1228.65 645.71 1219.99 647.23 C 1210.94 647.16 1202.02 648.87 1193.00 649.34 C 1181.33 649.27 1169.66 649.42 1157.99 649.27 C 1149.63 648.50 1141.39 647.28 1133.04 646.41 C 1110.25 642.60 1087.80 636.17 1066.92 626.16 C 1051.82 619.45 1038.32 609.73 1025.18 599.84 C 1018.71 593.97 1011.94 588.40 1006.17 581.81 C 1002.61 577.06 998.05 573.17 994.84 568.14 C 978.16 547.00 966.91 522.02 959.68 496.20 C 955.89 481.18 953.04 465.81 952.48 450.31 C 951.28 444.27 951.74 438.11 951.68 432.00 C 951.69 426.83 951.38 421.62 952.38 416.51 C 953.17 400.57 955.55 384.61 960.11 369.27 C 967.15 340.58 981.45 313.91 1000.11 291.12 C 1018.72 268.82 1042.72 251.29 1068.89 238.80 C 1090.25 229.07 1113.00 222.58 1136.18 219.01 C 1139.33 218.45 1142.72 219.16 1145.68 217.65 Z" />
<path fill="#116393" opacity="1.00" d=" M 1556.36 217.19 C 1561.19 216.30 1566.12 216.77 1571.01 216.68 C 1576.66 216.77 1582.33 216.48 1587.99 216.78 C 1595.64 217.97 1603.38 218.42 1611.05 219.50 C 1633.10 223.39 1654.78 230.32 1674.06 241.88 C 1682.86 246.58 1690.93 252.61 1698.33 259.30 C 1695.33 262.64 1691.92 265.60 1689.18 269.16 C 1685.87 273.48 1681.41 276.76 1678.24 281.19 C 1675.30 285.53 1670.62 288.29 1667.74 292.69 C 1664.80 297.05 1660.21 299.88 1657.08 304.07 C 1653.96 308.24 1649.97 311.61 1646.48 315.44 C 1643.55 319.24 1640.60 323.02 1637.36 326.55 C 1634.65 323.04 1632.14 319.14 1628.29 316.78 C 1623.56 314.18 1619.59 310.25 1614.26 308.82 C 1606.00 304.34 1596.78 301.90 1587.53 300.58 C 1581.86 298.69 1575.86 299.43 1570.00 299.32 C 1566.24 299.31 1562.37 298.89 1558.85 300.47 C 1550.91 300.38 1543.35 303.38 1536.04 306.14 C 1532.05 307.49 1528.92 310.38 1525.30 312.40 C 1521.59 314.54 1519.06 318.10 1516.00 321.01 C 1511.32 328.01 1508.89 336.59 1509.28 345.01 C 1509.81 356.87 1516.39 368.21 1526.50 374.47 C 1542.01 384.81 1560.28 389.47 1577.85 394.97 C 1597.76 400.65 1617.67 406.65 1636.45 415.46 C 1653.58 423.50 1669.62 434.75 1680.92 450.13 C 1686.89 458.47 1691.64 467.72 1694.56 477.57 C 1696.89 487.22 1699.78 496.96 1699.34 507.00 C 1699.17 514.30 1699.59 521.62 1699.15 528.91 C 1697.76 536.22 1696.95 543.66 1695.03 550.87 C 1689.05 573.24 1677.05 594.25 1659.43 609.44 C 1653.50 615.37 1646.49 620.08 1639.34 624.40 C 1631.93 629.53 1623.39 632.62 1615.24 636.35 C 1605.42 640.18 1595.22 643.01 1584.90 645.11 C 1580.18 645.33 1575.74 647.29 1571.01 647.35 C 1563.97 647.74 1557.07 649.66 1550.00 649.35 C 1541.34 649.17 1532.67 649.62 1524.03 649.12 C 1513.37 647.34 1502.45 647.23 1492.03 644.13 C 1483.31 642.17 1474.82 639.39 1466.25 636.88 C 1452.00 631.11 1438.48 623.68 1425.29 615.80 C 1418.13 610.00 1410.57 604.72 1403.95 598.32 C 1406.25 595.20 1408.56 592.03 1411.57 589.53 C 1422.92 577.55 1433.54 564.90 1445.00 553.03 C 1447.24 550.26 1449.27 547.30 1452.08 545.06 C 1455.37 542.31 1457.51 538.53 1460.59 535.58 C 1462.76 533.43 1464.97 531.29 1466.77 528.80 C 1473.44 536.26 1480.40 543.58 1488.72 549.24 C 1501.24 557.49 1515.45 563.28 1530.31 565.54 C 1537.40 567.46 1544.77 566.41 1552.02 566.70 C 1557.64 567.08 1563.06 565.34 1568.54 564.34 C 1577.49 562.53 1586.26 559.10 1593.56 553.51 C 1602.34 547.92 1608.75 538.49 1609.73 528.01 C 1610.49 518.76 1609.80 508.67 1603.84 501.10 C 1595.30 490.09 1582.86 482.47 1569.62 478.48 C 1561.78 474.45 1553.36 471.71 1544.94 469.20 C 1533.83 465.67 1522.75 462.07 1511.66 458.49 C 1503.18 456.07 1495.30 452.01 1486.97 449.16 C 1474.31 442.92 1461.54 436.46 1450.63 427.38 C 1446.33 423.33 1442.34 418.97 1437.98 414.98 C 1427.88 401.80 1420.21 386.38 1418.02 369.77 C 1416.59 363.60 1416.49 357.30 1416.68 351.00 C 1415.89 331.90 1420.32 312.77 1428.35 295.48 C 1431.92 287.70 1436.78 280.64 1441.55 273.58 C 1447.01 267.06 1452.88 260.85 1459.28 255.24 C 1463.40 252.39 1466.85 248.71 1470.89 245.79 C 1478.80 241.79 1486.00 236.40 1494.30 233.17 C 1502.97 228.95 1512.26 226.22 1521.43 223.29 C 1528.23 221.45 1535.22 220.43 1542.09 218.87 C 1546.88 218.67 1551.62 217.92 1556.36 217.19 Z" />
<path fill="#116393" opacity="1.00" d=" M 628.25 227.24 C 630.48 226.91 632.73 226.67 634.99 226.66 C 717.99 226.69 801.00 226.67 884.00 226.68 C 891.75 226.76 899.52 226.45 907.27 226.94 C 907.39 254.40 907.30 281.86 907.31 309.31 C 850.88 309.34 794.44 309.32 738.00 309.32 C 731.16 309.39 724.31 309.15 717.48 309.48 C 717.22 336.49 717.22 363.52 717.48 390.53 C 733.63 391.16 749.89 389.79 765.98 391.67 C 770.77 391.66 775.60 391.95 780.36 391.27 C 784.23 390.46 788.00 392.30 791.90 391.85 C 791.12 382.93 788.45 374.33 786.13 365.72 C 784.66 360.03 782.47 354.56 780.18 349.16 C 786.41 354.43 793.92 357.71 800.55 362.39 C 804.70 364.44 808.85 366.52 812.48 369.46 C 820.49 373.98 827.99 379.34 835.91 384.05 C 847.24 390.69 858.07 398.20 869.77 404.17 C 873.42 407.01 877.22 409.61 881.48 411.47 C 885.67 414.82 890.29 417.53 895.17 419.75 C 899.73 423.35 904.68 426.34 909.91 428.88 C 904.05 431.78 899.07 436.11 893.56 439.60 C 886.83 444.95 879.38 449.30 872.83 454.88 C 867.14 457.65 863.28 462.95 857.60 465.71 C 851.48 469.04 846.42 473.91 840.52 477.57 C 835.79 480.42 832.02 484.59 827.13 487.20 C 822.51 489.78 818.93 493.83 814.34 496.45 C 810.47 498.79 807.14 501.89 803.50 504.55 C 795.78 508.76 789.30 514.76 782.27 519.97 C 784.15 516.17 785.84 512.24 786.97 508.15 C 789.41 498.00 792.92 487.95 793.00 477.40 C 785.65 476.67 778.27 475.69 770.88 476.70 C 765.20 476.03 759.43 476.87 753.86 475.43 C 741.66 475.11 729.45 475.50 717.25 475.25 C 717.53 502.34 717.06 529.44 717.48 556.53 C 784.31 556.90 851.16 556.52 917.99 556.71 C 918.00 583.14 918.01 609.56 917.99 635.98 C 918.25 637.79 917.06 639.88 915.00 639.32 C 820.33 639.32 725.66 639.32 630.99 639.32 C 628.91 639.88 627.74 637.78 628.00 635.98 C 627.99 604.32 628.00 572.66 628.00 541.00 C 627.85 519.37 628.29 497.72 627.77 476.10 C 616.26 477.86 604.59 477.17 593.00 477.34 C 590.60 477.20 588.69 479.46 586.26 478.84 C 582.96 478.36 579.60 478.02 576.29 478.52 C 568.29 480.36 559.98 478.31 551.98 480.18 C 545.92 479.96 540.03 481.65 533.99 481.33 C 524.91 481.05 516.03 483.76 506.94 483.32 C 504.22 482.84 502.04 485.35 499.38 484.70 C 495.55 483.80 491.84 485.59 488.01 485.32 C 480.90 484.94 474.05 487.48 466.97 487.33 C 460.91 487.31 455.05 489.36 448.99 489.32 C 443.57 489.20 438.40 491.24 433.00 491.31 C 427.28 491.28 421.79 493.33 416.07 493.38 C 410.74 493.86 405.54 495.33 400.18 495.52 C 393.69 497.06 386.98 497.14 380.48 498.63 C 346.61 503.75 312.89 510.02 279.49 517.71 C 272.96 519.78 266.17 520.76 259.62 522.75 C 246.31 525.53 233.38 529.76 220.31 533.48 C 201.17 539.77 181.99 546.18 163.77 554.84 C 157.74 558.27 150.99 560.32 145.37 564.47 C 132.44 570.66 120.80 579.58 111.44 590.45 C 106.42 597.35 102.95 606.69 106.92 614.92 C 100.59 603.90 92.31 594.13 85.63 583.31 C 77.47 568.47 69.21 553.61 62.89 537.86 C 61.77 531.71 63.67 525.31 67.19 520.25 C 70.49 515.58 73.42 510.50 78.29 507.25 C 85.28 501.00 92.94 495.56 101.19 491.08 C 104.83 489.13 108.05 486.45 111.81 484.72 C 118.55 481.95 124.79 478.10 131.62 475.51 C 158.49 463.48 186.69 454.67 215.04 446.85 C 254.51 435.93 294.77 428.06 335.02 420.79 C 339.50 420.96 343.53 418.50 348.00 418.67 C 352.69 418.57 357.10 416.62 361.80 416.46 C 367.42 415.17 373.24 415.00 378.81 413.57 C 386.33 413.45 393.49 410.84 401.01 410.72 C 406.09 410.72 410.97 409.04 416.01 408.73 C 422.76 408.84 429.23 406.26 436.01 406.61 C 441.63 405.65 447.30 404.52 453.05 404.67 C 455.32 404.96 457.23 403.18 459.49 403.49 C 463.04 403.82 466.46 402.47 470.01 402.69 C 474.04 403.07 477.62 400.82 481.68 401.46 C 487.08 399.89 492.93 401.80 498.12 399.48 C 500.53 399.48 502.97 399.80 505.35 399.20 C 510.54 397.99 515.96 399.42 521.11 398.00 C 524.08 397.25 527.19 397.79 530.19 397.12 C 536.48 396.01 542.95 397.45 549.22 396.04 C 552.90 395.36 556.69 396.01 560.36 395.19 C 567.42 393.77 574.78 395.78 581.77 393.71 C 584.72 392.65 587.78 393.91 590.80 393.61 C 602.37 391.94 614.10 392.91 625.75 392.72 C 626.73 390.59 628.12 388.48 627.99 386.03 C 628.01 337.69 627.99 289.34 628.00 241.00 C 628.02 236.41 627.82 231.81 628.25 227.24 Z" />
<path fill="#116393" opacity="1.00" d=" M 1035.02 693.03 C 1038.24 693.03 1041.48 692.79 1044.70 693.14 C 1046.50 694.12 1045.87 696.28 1046.03 697.97 C 1045.97 711.98 1046.01 725.99 1046.00 740.00 C 1046.32 748.28 1044.97 756.47 1045.01 764.74 C 1042.45 767.48 1038.19 765.41 1035.01 764.99 C 1033.41 756.07 1034.15 747.00 1034.00 738.00 C 1034.00 728.00 1034.00 718.00 1034.00 708.00 C 1034.03 702.99 1033.56 697.89 1035.02 693.03 Z" />
<path fill="#116393" opacity="1.00" d=" M 1118.71 693.00 C 1122.17 692.99 1125.64 692.99 1129.12 693.02 C 1129.63 703.24 1129.03 713.49 1129.47 723.72 C 1133.23 723.41 1136.11 720.82 1139.45 719.37 C 1149.78 716.41 1161.82 722.55 1165.40 732.70 C 1168.76 739.31 1167.12 747.09 1164.93 753.81 C 1163.02 756.85 1161.48 760.48 1158.21 762.32 C 1154.63 765.06 1150.12 765.83 1145.88 766.98 C 1139.53 767.35 1134.30 763.18 1129.19 760.03 C 1129.07 761.76 1128.98 763.49 1128.92 765.24 C 1125.51 765.33 1122.11 765.33 1118.71 765.29 C 1118.64 741.19 1118.64 717.10 1118.71 693.00 M 1138.37 729.47 C 1128.77 732.25 1126.42 746.03 1133.19 752.80 C 1138.62 757.53 1148.22 757.97 1152.88 751.90 C 1158.54 745.76 1156.90 734.41 1149.41 730.53 C 1146.11 728.48 1142.01 728.75 1138.37 729.47 Z" />
<path fill="#116393" opacity="1.00" d=" M 1231.70 693.81 C 1235.07 692.68 1238.54 693.57 1241.98 693.86 C 1242.02 717.67 1241.99 741.47 1241.99 765.28 C 1238.31 765.35 1234.63 765.37 1230.97 765.16 C 1231.92 755.81 1231.63 746.39 1231.68 737.00 C 1231.69 722.60 1231.65 708.21 1231.70 693.81 Z" />
<path fill="#116393" opacity="1.00" d=" M 1400.71 692.99 C 1403.51 693.00 1406.33 693.00 1409.15 693.01 C 1409.59 696.07 1410.07 699.16 1409.57 702.25 C 1410.46 716.80 1409.79 731.42 1410.01 746.00 C 1410.26 752.46 1409.40 758.88 1409.27 765.33 C 1406.42 765.29 1403.59 765.17 1400.77 765.16 C 1400.29 761.78 1400.41 758.39 1400.64 755.00 C 1399.39 742.05 1400.25 729.00 1399.99 716.00 C 1399.63 708.30 1401.10 700.69 1400.71 692.99 Z" />
<path fill="#116393" opacity="1.00" d=" M 971.16 703.11 C 975.09 699.74 980.15 698.17 985.07 696.88 C 990.00 696.48 994.99 696.56 999.94 696.82 C 1003.16 697.55 1006.35 698.45 1009.55 699.31 C 1012.29 700.80 1014.87 702.56 1017.72 703.88 C 1015.28 706.82 1012.61 709.55 1009.74 712.06 C 1004.21 706.91 996.36 706.76 989.28 706.40 C 983.53 707.53 977.25 709.66 973.88 714.80 C 971.57 718.13 969.42 721.82 969.20 725.98 C 968.78 732.46 968.46 739.44 971.82 745.28 C 974.68 751.28 980.57 755.59 987.10 756.65 C 991.56 756.65 996.10 757.02 1000.54 756.41 C 1003.04 755.16 1005.78 754.60 1008.56 754.31 C 1008.80 748.56 1008.60 742.82 1008.72 737.07 C 1004.03 737.15 999.35 736.89 994.74 736.04 C 994.70 732.93 994.74 729.82 994.76 726.72 C 1002.94 726.63 1011.13 726.67 1019.31 726.69 C 1019.26 738.07 1019.47 749.45 1019.20 760.82 C 1014.50 762.31 1010.19 765.13 1005.16 765.45 C 996.14 768.33 985.99 767.59 977.35 763.72 C 967.79 759.65 959.92 750.88 958.29 740.45 C 954.73 727.00 959.75 711.34 971.16 703.11 Z" />
<path fill="#116393" opacity="1.00" d=" M 1287.08 707.17 C 1289.95 700.92 1296.95 698.57 1303.05 696.78 C 1308.26 696.74 1313.83 695.82 1318.71 698.14 C 1321.82 699.04 1324.28 701.20 1326.88 703.05 C 1324.44 705.76 1321.24 707.90 1319.79 711.38 C 1317.24 709.34 1314.60 706.84 1311.10 707.05 C 1306.71 707.12 1301.66 706.15 1297.87 708.87 C 1295.57 712.12 1294.96 717.23 1297.56 720.49 C 1301.76 725.04 1308.28 725.87 1313.82 728.01 C 1317.95 729.03 1321.14 732.03 1324.21 734.81 C 1328.43 739.39 1327.66 746.11 1327.10 751.81 C 1324.80 758.67 1318.83 764.69 1311.49 765.76 C 1301.60 768.93 1289.68 766.28 1282.71 758.40 C 1285.41 755.91 1287.73 753.06 1290.07 750.24 C 1292.68 752.57 1295.31 754.96 1298.54 756.42 C 1301.85 756.93 1305.27 756.81 1308.63 756.54 C 1311.16 755.28 1313.81 753.92 1315.55 751.59 C 1316.39 747.70 1316.64 742.60 1313.08 739.95 C 1307.86 737.23 1302.11 735.77 1296.76 733.34 C 1291.80 730.90 1286.31 727.60 1284.88 721.85 C 1284.32 716.87 1284.13 711.50 1287.08 707.17 Z" />
<path fill="#116393" opacity="1.00" d=" M 1516.89 703.11 C 1517.88 699.43 1521.31 697.75 1524.76 697.04 C 1527.21 698.77 1530.29 700.61 1530.38 704.00 C 1530.21 707.89 1526.39 710.05 1523.09 711.11 C 1520.31 709.21 1516.92 706.83 1516.89 703.11 Z" />
<path fill="#116393" opacity="1.00" d=" M 629.68 698.69 C 644.23 698.67 658.78 698.67 673.33 698.68 C 673.34 702.02 673.36 705.37 673.12 708.71 C 665.90 708.50 658.66 709.08 651.46 708.38 C 647.72 707.63 644.00 708.72 640.30 709.13 C 640.38 714.62 640.19 720.12 640.47 725.62 C 646.56 726.31 652.69 725.35 658.80 725.46 C 662.94 725.98 667.12 726.10 671.30 726.02 C 671.32 729.11 671.31 732.21 671.33 735.32 C 661.26 735.30 651.19 735.39 641.13 735.26 C 639.47 741.66 640.73 748.34 640.25 754.87 C 650.50 755.16 660.77 754.93 671.03 754.98 C 672.38 755.14 674.36 754.69 675.11 756.21 C 675.51 759.16 675.19 762.16 675.21 765.13 C 660.06 765.49 644.89 765.33 629.74 765.23 C 629.60 743.05 629.71 720.87 629.68 698.69 Z" />
<path fill="#116393" opacity="1.00" d=" M 897.00 706.71 C 900.44 706.66 903.87 706.67 907.32 706.68 C 907.31 711.29 907.24 715.91 907.48 720.52 C 911.75 720.74 916.04 720.69 920.33 720.68 C 920.31 723.44 920.31 726.22 920.29 729.00 C 915.95 728.98 911.61 728.98 907.28 729.07 C 907.93 738.15 905.98 747.53 908.63 756.37 C 912.48 757.24 916.45 758.04 920.31 756.66 C 920.31 759.45 920.31 762.25 920.26 765.06 C 914.09 766.36 907.11 767.41 901.63 763.44 C 898.32 761.15 897.82 756.86 897.53 753.18 C 896.48 745.20 897.27 737.14 896.92 729.12 C 894.02 729.03 891.12 728.99 888.23 728.75 C 888.01 726.07 887.97 723.39 887.95 720.71 C 890.94 720.67 893.93 720.67 896.93 720.72 C 897.02 716.05 897.01 711.38 897.00 706.71 Z" />
<path fill="#116393" opacity="1.00" d=" M 1484.68 706.68 C 1488.20 706.67 1491.72 706.67 1495.25 706.70 C 1495.24 711.10 1495.33 715.52 1495.28 719.93 C 1499.28 720.01 1503.28 720.01 1507.30 720.01 C 1507.31 723.00 1507.31 725.99 1507.29 728.99 C 1503.28 728.98 1499.27 728.98 1495.27 729.07 C 1495.43 737.31 1495.21 745.55 1495.36 753.79 C 1495.24 755.03 1496.50 755.91 1497.48 756.46 C 1500.68 757.41 1504.09 758.16 1507.31 756.76 C 1507.31 759.50 1507.30 762.24 1507.27 765.00 C 1504.46 765.48 1501.76 766.43 1498.97 766.95 C 1494.91 766.10 1490.56 765.35 1487.29 762.61 C 1483.62 755.96 1484.83 748.26 1484.68 741.01 C 1484.67 737.03 1484.65 733.05 1484.72 729.07 C 1481.46 729.00 1478.21 728.99 1474.97 728.98 C 1474.96 726.07 1474.98 723.15 1475.23 720.25 C 1478.38 719.97 1481.55 719.97 1484.73 719.91 C 1484.62 715.50 1484.69 711.09 1484.68 706.68 Z" />
<path fill="#116393" opacity="1.00" d=" M 757.05 720.93 C 761.07 719.30 765.47 717.92 769.83 719.07 C 774.79 720.43 779.78 722.91 782.78 727.26 C 784.45 730.10 786.00 733.05 787.09 736.16 C 787.72 742.13 787.74 748.40 785.05 753.92 C 782.53 760.90 775.31 764.89 768.40 766.32 C 761.85 767.54 756.35 763.09 750.18 762.01 C 749.65 769.92 750.38 777.88 749.81 785.78 C 747.77 788.83 742.90 786.73 739.71 787.28 C 739.46 779.45 740.12 771.59 739.23 763.80 C 740.17 749.48 739.41 735.08 739.72 720.73 C 742.81 720.47 745.91 720.45 749.00 720.77 C 749.14 722.29 749.29 723.81 749.46 725.35 C 752.47 724.79 754.36 722.14 757.05 720.93 M 759.31 729.34 C 748.77 731.63 746.17 748.03 755.18 753.80 C 758.67 756.89 763.54 756.58 767.85 756.04 C 777.21 752.93 780.16 738.84 772.63 732.42 C 769.36 728.62 763.86 728.51 759.31 729.34 Z" />
<path fill="#116393" opacity="1.00" d=" M 801.34 729.45 C 806.69 722.68 815.32 718.26 824.01 718.71 C 828.03 719.56 832.40 720.58 835.39 723.62 C 841.82 729.35 843.64 738.69 843.12 746.93 C 840.40 746.84 837.72 746.42 835.01 746.25 C 828.34 747.03 821.53 747.19 814.88 746.11 C 812.48 745.65 810.13 746.27 807.99 747.30 C 808.74 749.61 808.86 752.44 810.90 754.08 C 815.12 757.83 821.70 759.16 826.94 756.82 C 829.46 755.72 831.75 754.15 834.03 752.62 C 836.07 754.59 838.29 756.37 840.63 757.98 C 837.54 760.13 835.04 763.24 831.38 764.50 C 828.90 765.36 826.38 766.09 823.87 766.81 C 820.26 766.62 816.73 765.65 813.19 765.00 C 804.76 761.52 798.28 753.23 797.83 743.98 C 797.23 738.85 799.71 734.15 801.34 729.45 M 815.92 727.69 C 811.28 729.15 809.00 733.80 808.36 738.31 C 816.44 738.39 824.52 738.37 832.61 738.33 C 832.28 735.52 831.54 732.60 829.49 730.55 C 826.32 726.58 820.44 726.46 815.92 727.69 Z" />
<path fill="#116393" opacity="1.00" d=" M 874.43 720.35 C 877.08 719.09 880.82 717.35 883.16 720.14 C 883.51 723.18 883.29 726.25 883.32 729.31 C 879.71 729.06 876.05 728.88 872.49 729.54 C 869.58 731.51 865.96 734.00 866.17 737.96 C 865.33 747.05 867.08 756.34 865.14 765.32 C 862.00 765.31 858.86 765.30 855.73 765.27 C 855.61 750.40 855.70 735.54 855.69 720.67 C 858.86 720.68 862.04 720.69 865.23 720.68 C 865.27 722.24 865.33 723.80 865.41 725.36 C 869.15 725.23 871.15 721.59 874.43 720.35 Z" />
<path fill="#116393" opacity="1.00" d=" M 1077.36 719.28 C 1082.81 717.45 1088.23 719.91 1093.44 721.36 C 1098.41 724.00 1102.09 728.55 1104.76 733.43 C 1106.09 738.23 1107.13 743.44 1105.49 748.32 C 1103.57 756.93 1096.35 764.44 1087.48 765.66 C 1085.00 766.03 1082.60 767.03 1080.10 766.93 C 1075.02 765.42 1069.55 764.23 1065.62 760.39 C 1055.80 751.94 1054.78 734.52 1064.90 725.93 C 1067.91 722.01 1072.87 720.72 1077.36 719.28 M 1078.30 729.29 C 1073.72 730.01 1070.25 733.97 1069.10 738.31 C 1066.79 745.31 1070.54 754.37 1078.02 756.21 C 1082.10 756.32 1086.89 757.28 1090.12 754.09 C 1098.28 748.26 1097.04 734.22 1088.03 729.84 C 1084.91 728.78 1081.51 728.73 1078.30 729.29 Z" />
<path fill="#116393" opacity="1.00" d=" M 1179.84 726.15 C 1184.19 721.26 1190.70 719.43 1196.98 718.69 C 1202.89 718.29 1209.41 720.03 1213.40 724.65 C 1216.07 728.52 1217.51 733.27 1217.36 737.98 C 1217.30 747.09 1217.35 756.20 1217.31 765.31 C 1214.58 765.29 1211.87 765.43 1209.17 765.22 C 1207.99 763.90 1207.99 762.05 1207.59 760.46 C 1204.84 761.13 1202.65 762.89 1200.48 764.60 C 1197.74 765.71 1194.84 766.49 1191.94 767.00 C 1187.04 766.18 1182.07 764.18 1178.78 760.29 C 1175.57 757.56 1176.72 752.82 1176.84 749.14 C 1178.62 745.70 1180.60 741.65 1184.61 740.45 C 1192.09 737.65 1200.14 736.54 1208.13 736.96 C 1208.35 733.12 1206.66 729.70 1203.55 727.48 C 1197.08 726.38 1189.77 726.40 1184.66 731.12 C 1183.41 729.13 1181.70 727.53 1179.84 726.15 M 1189.74 747.78 C 1187.09 749.31 1186.27 753.20 1188.51 755.44 C 1193.18 760.11 1201.96 758.95 1205.67 753.59 C 1206.69 750.91 1206.77 747.99 1206.96 745.17 C 1201.22 745.28 1194.75 744.44 1189.74 747.78 Z" />
<path fill="#116393" opacity="1.00" d=" M 1357.37 719.32 C 1363.12 717.51 1368.95 719.60 1374.42 721.37 C 1379.94 724.50 1384.74 729.70 1386.17 736.01 C 1389.92 746.37 1384.28 758.75 1374.76 763.84 C 1372.26 765.53 1369.06 765.24 1366.33 766.36 C 1362.60 767.98 1358.81 765.69 1355.15 765.00 C 1348.07 763.24 1342.50 757.52 1340.17 750.71 C 1336.30 741.93 1339.82 731.70 1345.98 724.96 C 1349.35 722.31 1353.24 720.44 1357.37 719.32 M 1359.28 729.20 C 1355.24 730.19 1351.77 733.52 1350.17 737.31 C 1349.19 741.87 1349.25 747.02 1351.90 751.07 C 1356.91 758.58 1369.82 758.28 1374.38 750.42 C 1376.76 747.10 1376.47 742.87 1376.18 739.02 C 1375.53 735.22 1372.48 732.49 1369.59 730.25 C 1366.44 728.60 1362.69 728.91 1359.28 729.20 Z" />
<path fill="#116393" opacity="1.00" d=" M 1562.33 719.15 C 1574.91 716.74 1588.32 726.71 1589.66 739.48 C 1590.95 746.84 1588.35 754.71 1582.56 759.54 C 1578.60 764.58 1571.85 765.34 1566.02 766.75 C 1559.14 765.55 1551.35 763.95 1547.06 757.87 C 1542.91 752.38 1540.09 745.11 1541.96 738.22 C 1543.26 728.09 1552.68 720.77 1562.33 719.15 M 1561.29 729.33 C 1556.50 730.38 1553.49 735.04 1552.29 739.51 C 1550.68 743.48 1552.97 747.64 1554.66 751.20 C 1558.08 756.58 1565.03 757.26 1570.75 756.02 C 1574.23 754.23 1577.50 751.37 1578.65 747.51 C 1580.87 741.30 1578.51 733.54 1572.58 730.30 C 1569.26 727.88 1565.02 728.57 1561.29 729.33 Z" />
<path fill="#116393" opacity="1.00" d=" M 1622.57 719.48 C 1627.21 717.41 1632.11 719.72 1636.51 721.34 C 1641.09 725.56 1643.31 731.82 1643.35 737.97 C 1643.40 747.08 1643.13 756.18 1643.16 765.29 C 1639.73 765.31 1636.32 765.25 1632.91 765.16 C 1632.77 755.77 1632.66 746.38 1632.69 736.99 C 1632.99 734.09 1631.12 731.69 1629.37 729.62 C 1625.40 727.77 1620.75 728.29 1616.87 729.95 C 1611.65 733.56 1613.30 740.59 1612.99 746.00 C 1612.64 752.15 1613.74 758.56 1612.45 764.55 C 1609.54 766.13 1605.89 764.97 1602.71 765.21 C 1602.63 750.36 1602.69 735.52 1602.68 720.67 C 1605.83 720.68 1608.99 720.68 1612.16 720.72 C 1612.28 722.40 1612.44 724.09 1612.67 725.78 C 1616.51 724.54 1618.73 720.74 1622.57 719.48 Z" />
<path fill="#116393" opacity="1.00" d=" M 1659.85 722.91 C 1664.53 718.32 1671.70 718.14 1677.81 719.13 C 1681.72 720.54 1685.60 722.25 1688.88 724.88 C 1686.54 727.00 1684.24 729.17 1682.05 731.44 C 1679.64 729.59 1677.39 726.67 1673.99 727.25 C 1670.64 726.79 1666.65 727.94 1665.42 731.41 C 1664.63 733.39 1666.48 734.93 1667.64 736.28 C 1674.77 739.01 1683.87 738.59 1688.76 745.40 C 1689.88 748.60 1690.84 752.15 1689.69 755.50 C 1689.12 759.91 1684.95 762.51 1681.48 764.64 C 1678.56 765.28 1675.71 766.07 1672.89 766.99 C 1669.46 767.16 1666.20 765.82 1662.87 765.28 C 1659.24 764.72 1656.62 761.90 1653.81 759.82 C 1656.22 758.01 1658.40 755.90 1660.29 753.55 C 1662.64 755.28 1665.09 756.89 1667.69 758.26 C 1671.91 759.63 1676.54 758.61 1679.86 755.64 C 1679.74 752.95 1679.83 749.39 1676.75 748.32 C 1672.29 746.46 1667.22 746.22 1662.72 744.38 C 1659.38 742.78 1656.84 739.93 1655.24 736.65 C 1653.93 731.61 1656.65 726.62 1659.85 722.91 Z" />
<path fill="#116393" opacity="1.00" d=" M 684.32 720.57 C 688.24 720.62 692.48 718.95 696.17 720.83 C 699.37 724.55 702.48 728.46 704.65 732.90 C 705.61 732.85 706.57 732.76 707.54 732.64 C 711.10 729.34 712.58 724.37 716.15 721.08 C 719.74 719.00 724.02 720.31 727.89 720.66 C 723.14 725.12 720.18 731.02 715.89 735.86 C 714.57 737.47 712.79 739.33 713.36 741.61 C 718.72 749.74 724.63 757.50 730.69 765.12 C 726.83 765.32 722.96 765.52 719.11 765.18 C 716.75 763.44 715.35 760.65 713.62 758.32 C 711.65 755.22 709.07 752.55 707.34 749.31 C 706.43 749.29 705.53 749.28 704.64 749.29 C 701.24 754.94 697.33 760.41 692.91 765.22 C 689.38 765.43 685.84 765.24 682.32 765.20 C 686.45 756.83 693.94 750.65 698.53 742.55 C 699.52 740.25 697.99 738.07 696.57 736.39 C 692.10 731.42 688.94 725.43 684.32 720.57 Z" />
<path fill="#116393" opacity="1.00" d=" M 1425.01 720.71 C 1428.43 720.66 1431.87 720.67 1435.32 720.68 C 1435.39 729.41 1435.21 738.15 1435.37 746.88 C 1435.45 750.74 1437.10 754.43 1440.45 756.53 C 1443.45 756.88 1446.52 756.87 1449.53 756.49 C 1453.79 754.33 1455.67 749.54 1455.68 744.97 C 1455.72 736.87 1455.64 728.77 1455.69 720.68 C 1458.88 720.68 1462.09 720.68 1465.31 720.68 C 1465.35 732.13 1465.32 743.58 1465.32 755.04 C 1465.26 758.45 1465.99 761.89 1465.27 765.28 C 1462.43 765.24 1459.60 765.26 1456.78 765.28 C 1456.70 763.23 1456.58 761.18 1456.41 759.14 C 1453.22 758.77 1452.06 762.37 1449.56 763.61 C 1442.66 768.84 1431.39 766.01 1427.58 758.31 C 1425.71 754.87 1425.31 750.86 1425.02 747.02 C 1424.94 738.25 1425.02 729.48 1425.01 720.71 Z" />
<path fill="#116393" opacity="1.00" d=" M 1518.69 720.68 C 1522.11 720.67 1525.55 720.67 1528.99 720.71 C 1529.02 733.82 1528.96 746.93 1529.03 760.04 C 1529.09 761.84 1528.74 763.61 1528.17 765.32 C 1525.01 765.24 1521.86 765.29 1518.71 765.31 C 1518.62 750.43 1518.68 735.55 1518.69 720.68 Z" />
</g>
</svg>
